<?xml version="1.0" encoding="UTF-8" standalone="no"?>
<svg width="76px" height="10px" viewBox="0 0 76 10" version="1.1" xmlns="http://www.w3.org/2000/svg" xmlns:xlink="http://www.w3.org/1999/xlink" xmlns:sketch="http://www.bohemiancoding.com/sketch/ns">
    <!-- Generator: Sketch 3.4.4 (17249) - http://www.bohemiancoding.com/sketch -->
    <title>LEARN MORE</title>
    <desc>Created with Sketch.</desc>
    <defs></defs>
    <g id="Page-1" stroke="none" stroke-width="1" fill="none" fill-rule="evenodd" sketch:type="MSPage">
        <g id="Artboard-1-Copy" sketch:type="MSArtboardGroup" transform="translate(-194.000000, -215.000000)" fill="#FFFFFF">
            <g id="Rectangle-56-+-LEARN-MORE" sketch:type="MSLayerGroup" transform="translate(177.000000, 207.000000)">
                <path d="M17.092,16.772 C17.092,16.892 17.188,17 17.32,17 L21.712,17 C21.844,17 21.94,16.892 21.94,16.772 L21.94,15.788 C21.94,15.668 21.844,15.56 21.712,15.56 L18.652,15.56 L18.652,8.828 C18.652,8.708 18.544,8.6 18.424,8.6 L17.32,8.6 C17.188,8.6 17.092,8.708 17.092,8.828 L17.092,16.772 Z M23.2853333,16.772 C23.2853333,16.892 23.3813333,17 23.5133333,17 L28.3973333,17 C28.5293333,17 28.6253333,16.892 28.6253333,16.772 L28.6253333,15.788 C28.6253333,15.668 28.5293333,15.56 28.3973333,15.56 L24.8453333,15.56 L24.8453333,13.46 L27.8093333,13.46 C27.9293333,13.46 28.0373333,13.364 28.0373333,13.232 L28.0373333,12.236 C28.0373333,12.116 27.9293333,12.008 27.8093333,12.008 L24.8453333,12.008 L24.8453333,10.04 L28.3973333,10.04 C28.5293333,10.04 28.6253333,9.932 28.6253333,9.812 L28.6253333,8.828 C28.6253333,8.708 28.5293333,8.6 28.3973333,8.6 L23.5133333,8.6 C23.3813333,8.6 23.2853333,8.708 23.2853333,8.828 L23.2853333,16.772 Z M29.5866667,17 L30.6306667,17 C30.8226667,17 30.9306667,16.88 30.9786667,16.76 L31.5666667,15.464 L35.1546667,15.464 L35.7426667,16.76 C35.8266667,16.928 35.9106667,17 36.0906667,17 L37.1346667,17 C37.3146667,17 37.4106667,16.844 37.3386667,16.688 L33.6426667,8.612 C33.6066667,8.54 33.5586667,8.48 33.4386667,8.48 L33.3186667,8.48 C33.2106667,8.48 33.1506667,8.54 33.1146667,8.612 L29.3826667,16.688 C29.3106667,16.844 29.4066667,17 29.5866667,17 L29.5866667,17 Z M32.1546667,14.132 L33.3306667,11.492 L33.3666667,11.492 L34.5666667,14.132 L32.1546667,14.132 Z M38.564,16.772 C38.564,16.892 38.66,17 38.792,17 L39.896,17 C40.016,17 40.124,16.892 40.124,16.772 L40.124,13.712 L41.456,13.712 L43.052,16.892 C43.076,16.94 43.136,17 43.244,17 L44.504,17 C44.708,17 44.792,16.808 44.708,16.652 L43.064,13.604 C44.108,13.184 44.84,12.284 44.84,11.18 C44.84,9.752 43.664,8.6 42.224,8.6 L38.792,8.6 C38.66,8.6 38.564,8.708 38.564,8.828 L38.564,16.772 Z M40.136,12.428 L40.136,10.04 L42.092,10.04 C42.728,10.04 43.28,10.568 43.28,11.204 C43.28,11.876 42.728,12.428 42.092,12.428 L40.136,12.428 Z M46.6893334,16.772 C46.6893334,16.892 46.7973334,17 46.9173334,17 L48.0093334,17 C48.1413334,17 48.2373334,16.892 48.2373334,16.772 L48.2373334,11.612 L48.2493334,11.612 L53.2653334,17.12 L53.5533334,17.12 C53.6733334,17.12 53.7813334,17.024 53.7813334,16.904 L53.7813334,8.828 C53.7813334,8.708 53.6733334,8.6 53.5533334,8.6 L52.4493334,8.6 C52.3173334,8.6 52.2213334,8.708 52.2213334,8.828 L52.2213334,13.784 L52.2093334,13.784 L47.2173334,8.48 L46.9173334,8.48 C46.7973334,8.48 46.6893334,8.576 46.6893334,8.696 L46.6893334,16.772 Z M58.332,16.724 C58.308,16.892 58.404,17 58.56,17 L59.64,17 C59.748,17 59.844,16.904 59.856,16.82 L60.552,12.272 L60.588,12.272 L62.712,16.988 C62.748,17.06 62.808,17.12 62.916,17.12 L63.132,17.12 C63.24,17.12 63.312,17.06 63.336,16.988 L65.436,12.272 L65.472,12.272 L66.18,16.82 C66.204,16.904 66.3,17 66.408,17 L67.5,17 C67.656,17 67.752,16.892 67.716,16.724 L66.3,8.66 C66.288,8.564 66.216,8.48 66.084,8.48 L65.892,8.48 C65.784,8.48 65.724,8.528 65.688,8.6 L63.048,14.264 L63.012,14.264 L60.372,8.6 C60.336,8.528 60.264,8.48 60.168,8.48 L59.976,8.48 C59.844,8.48 59.772,8.564 59.76,8.66 L58.332,16.724 Z M68.8933334,12.812 C68.8933334,15.212 70.8013334,17.12 73.2013334,17.12 C75.6013334,17.12 77.5213334,15.212 77.5213334,12.812 C77.5213334,10.412 75.6013334,8.48 73.2013334,8.48 C70.8013334,8.48 68.8933334,10.412 68.8933334,12.812 L68.8933334,12.812 Z M70.4533334,12.812 C70.4533334,11.3 71.6893334,10.04 73.2013334,10.04 C74.7133334,10.04 75.9613334,11.3 75.9613334,12.812 C75.9613334,14.324 74.7133334,15.56 73.2013334,15.56 C71.6893334,15.56 70.4533334,14.324 70.4533334,12.812 L70.4533334,12.812 Z M79.2266667,16.772 C79.2266667,16.892 79.3226667,17 79.4546667,17 L80.5586667,17 C80.6786667,17 80.7866667,16.892 80.7866667,16.772 L80.7866667,13.712 L82.1186667,13.712 L83.7146667,16.892 C83.7386667,16.94 83.7986667,17 83.9066667,17 L85.1666667,17 C85.3706667,17 85.4546667,16.808 85.3706667,16.652 L83.7266667,13.604 C84.7706667,13.184 85.5026667,12.284 85.5026667,11.18 C85.5026667,9.752 84.3266667,8.6 82.8866667,8.6 L79.4546667,8.6 C79.3226667,8.6 79.2266667,8.708 79.2266667,8.828 L79.2266667,16.772 Z M80.7986667,12.428 L80.7986667,10.04 L82.7546667,10.04 C83.3906667,10.04 83.9426667,10.568 83.9426667,11.204 C83.9426667,11.876 83.3906667,12.428 82.7546667,12.428 L80.7986667,12.428 Z M87.3520001,16.772 C87.3520001,16.892 87.4480001,17 87.5800001,17 L92.4640001,17 C92.5960001,17 92.6920001,16.892 92.6920001,16.772 L92.6920001,15.788 C92.6920001,15.668 92.5960001,15.56 92.4640001,15.56 L88.9120001,15.56 L88.9120001,13.46 L91.8760001,13.46 C91.9960001,13.46 92.1040001,13.364 92.1040001,13.232 L92.1040001,12.236 C92.1040001,12.116 91.9960001,12.008 91.8760001,12.008 L88.9120001,12.008 L88.9120001,10.04 L92.4640001,10.04 C92.5960001,10.04 92.6920001,9.932 92.6920001,9.812 L92.6920001,8.828 C92.6920001,8.708 92.5960001,8.6 92.4640001,8.6 L87.5800001,8.6 C87.4480001,8.6 87.3520001,8.708 87.3520001,8.828 L87.3520001,16.772 Z" id="LEARN-MORE" sketch:type="MSShapeGroup"></path>
            </g>
        </g>
    </g>
</svg>